<?xml version="1.0" encoding="UTF-8" standalone="no"?>
<!-- Created with Inkscape (http://www.inkscape.org/) -->

<svg
   xmlns:dc="http://purl.org/dc/elements/1.1/"
   xmlns:cc="http://creativecommons.org/ns#"
   xmlns:rdf="http://www.w3.org/1999/02/22-rdf-syntax-ns#"
   xmlns:svg="http://www.w3.org/2000/svg"
   xmlns="http://www.w3.org/2000/svg"
   xmlns:sodipodi="http://sodipodi.sourceforge.net/DTD/sodipodi-0.dtd"
   xmlns:inkscape="http://www.inkscape.org/namespaces/inkscape"
   width="173.30118mm"
   height="192.91945mm"
   viewBox="0 0 173.30118 192.91945"
   version="1.1"
   id="svg3934"
   inkscape:version="0.92.3 (2405546, 2018-03-11)"
   sodipodi:docname="dipexercise.svg">
  <defs
     id="defs3928" />
  <sodipodi:namedview
     id="base"
     pagecolor="#ffffff"
     bordercolor="#666666"
     borderopacity="1.0"
     inkscape:pageopacity="0.0"
     inkscape:pageshadow="2"
     inkscape:zoom="0.5"
     inkscape:cx="480.4983"
     inkscape:cy="289.5722"
     inkscape:document-units="mm"
     inkscape:current-layer="layer1"
     showgrid="false"
     inkscape:window-width="1366"
     inkscape:window-height="705"
     inkscape:window-x="-8"
     inkscape:window-y="-8"
     inkscape:window-maximized="1" />
  <metadata
     id="metadata3931">
    <rdf:RDF>
      <cc:Work
         rdf:about="">
        <dc:format>image/svg+xml</dc:format>
        <dc:type
           rdf:resource="http://purl.org/dc/dcmitype/StillImage" />
        <dc:title></dc:title>
      </cc:Work>
    </rdf:RDF>
  </metadata>
  <g
     inkscape:label="Layer 1"
     inkscape:groupmode="layer"
     id="layer1"
     transform="translate(21.298509,-43.113195)">
    <path
       style="fill:#000000;stroke-width:0.26458338"
       d="m 17.564766,235.80081 c -4.833519,-0.38721 -6.957398,-5.03745 -10.7892497,-7.26718 -1.91174,-2.91514 -5.96812997,-1.45203 -9.03905,-1.35091 -2.48219,-0.21553 -5.74694,-0.0852 -6.838,-3.9883 -5.3779003,-4.70032 -0.9770903,-12.56821 -2.8121103,-18.64173 -1.84611,-4.34223 2.0374303,-10.30395 6.8916303,-7.65721 4.08847003,3.8871 4.78999003,-0.53127 6.12414,-4.35147 3.898871,-2.38003 6.808831,-2.60722 5.56381,-8.25169 0.62557,-7.54345 2.24405,-15.16952 4.7636797,-22.12114 2.3364,-3.29969 1.04354,-8.27802 0.140412,-12.0218 -2.1615217,-7.36812 -3.6719617,-15.27026 -1.517801,-22.82516 -3.2501387,0.80546 -8.3195207,0.36221 -10.37751967,1.01014 -1.80094103,8.83756 1.255999,18.16328 7.76844997,24.34923 -2.049182,4.39466 1.602298,6.62536 0.62833,10.54808 -2.039461,2.89512 -6.672471,2.05405 -9.713531,3.25161 -2.9608,-1.89844 -5.97471,-4.45125 -8.9611503,-6.20361 -1.84709,-3.85818 0.7884603,-7.95932 -4.15375,-9.83222 -1.90191,-1.17617 -10.43977,-8.60269 -4.43152,-5.00491 3.38777,1.34957 6.67512,8.39796 10.2235603,5.87185 4.93023,-2.9285 -2.5393703,-5.59353 -4.4587203,-7.95162 -6.10177,-4.1047 -3.07541,-5.01032 1.22041,-0.41544 5.4905603,5.71732 4.9641903,2.30031 1.52783,-2.6947 -4.12414,-5.83871 -6.63288,-12.45342 -6.71597,-19.64814 -2.06983,-4.18119 0.89989,-6.974 4.78608,-8.06177 5.1755803,-0.19004 10.1595713,-1.54901 15.0151903,-2.63045 4.62519,-0.76466 9.3352307,2.90278 13.5598097,-0.17673 4.718931,-1.41214 8.252991,2.94972 12.741261,1.5453 4.12064,1.67537 7.000539,1.24142 4.857909,-3.80026 1.380551,-3.55315 2.53193,-7.740493 5.46182,-10.520592 6.38819,-4.83817 18.4912,-0.89595 17.2422,8.254392 -0.360449,4.12078 -2.886289,7.74006 3.221281,6.74332 4.878909,-0.46969 5.380181,3.46387 4.914519,7.2979 1.583801,8.12949 -7.827549,13.54755 -7.210589,21.17966 1.29045,3.01595 6.633681,5.56448 3.807611,9.23573 3.092339,1.75168 6.486268,5.76908 2.636449,8.59639 -4.121989,2.54312 -6.259949,-4.93301 -10.012699,-1.57324 -4.04056,0.62469 -6.6548,-5.39608 -6.534962,1.32864 -1.349748,4.57885 -3.428079,9.30226 -1.35867,13.85139 -1.380818,4.39151 0.643742,8.57611 -0.3834,13.05521 0.308732,4.29227 0.669232,8.59479 0.623721,12.93778 0.01659,4.0272 -0.983649,8.40286 -0.74059,12.84099 0.304059,8.64376 -5.599869,15.24175 -8.571031,22.86342 -3.090059,2.15104 -9.69091,2.91141 -11.603199,-0.98728 -1.178251,3.19359 -4.45502,3.88538 -7.496591,3.21652 z m 3.262281,-1.30157 c 4.32539,-0.73911 2.70092,-6.72281 5.018889,-9.62861 2.732141,-6.88767 1.72176,-14.32342 1.897811,-21.54025 -6.05052,2.48702 -13.073462,1.00808 -18.8659607,-0.34232 0.55272,7.03147 1.7216407,14.1355 3.7197187,20.75818 -1.126709,6.57958 -0.844089,-4.03801 -2.8606377,-5.77895 -1.34634,-5.92904 -1.05012,-12.57464 -3.202881,-17.99889 -0.416979,-3.17733 2.12467,-10.18996 -3.31931,-8.07559 -2.82202997,0.66146 -4.5182,10.44033 -1.81133,7.31541 2.25118,-6.17119 -0.12781,0.32133 1.68145,2.37859 3.22831,2.91651 0.438071,4.87599 1.597631,8.9275 -1.728011,7.09712 -0.82634,16.42762 6.6792777,19.7556 2.362221,3.28733 5.156642,5.37966 9.465342,4.22933 z m -3.613131,-3.87398 c -3.418438,-3.8954 -1.905699,-5.81046 0.876411,-0.90017 1.88391,1.10265 0.174469,1.87867 -0.876411,0.90017 z m 17.23141,2.70057 c 3.52144,-1.97183 2.79101,-7.16469 5.84885,-9.92849 5.057431,-5.9403 3.38301,-14.09334 3.589171,-21.25266 -4.671431,1.9636 -9.855211,1.06169 -14.684381,0.45354 -0.15522,8.33634 0.44281,16.7916 -3.017509,24.60625 -2.82621,3.88237 1.36875,7.65243 5.45823,6.46739 0.96121,-0.0723 1.949929,0.26311 2.805639,-0.34603 z M 0.37641633,225.19862 c 3.56799097,1.01802 4.30988997,0.62246 2.86534997,-4.22678 -0.21912,-4.11562 -2.16637,-9.42307 -5.952559,-11.06195 -3.817211,1.23189 -5.089101,-7.58341 -1.833621,-1.39715 4.39889003,0.49791 4.89582003,0.42756 5.06713003,2.32041 3.23638997,6.20792 3.57284997,-0.19393 2.87561997,-3.93592 0.370231,-4.81261 -3.90526997,-5.53874 -7.07928,-7.79396 -2.72951,-3.08226 -7.6941493,-1.31094 -7.2060003,2.97033 2.1580703,6.67656 -2.55076,14.72066 2.5085403,20.33145 1.67627,3.96589 4.25697,2.58203 7.2468,3.47873 0.49767003,-0.23832 1.26356103,0.0564 1.50802003,-0.68516 z m -3.68793003,-3.02993 c -1.07514,-5.889 3.21379003,1.83116 0,0 z m 3.06234003,0.088 c -2.00775003,-5.94126 3.58310097,1.06259 0,0 z M 24.513026,202.97521 c 6.092831,0.91138 3.044341,-6.05196 4.95182,-9.40187 2.22087,-0.3986 6.86176,-8.64567 6.132902,-4.92596 0.707588,2.39302 3.153619,2.0443 -2.780782,4.0096 -3.81635,0.589 -3.422308,7.1979 -1.700408,8.79617 4.439309,0.32188 10.692199,1.71114 13.776259,-2.302 -0.743871,-4.48213 0.699431,-9.06552 -1.010111,-13.43855 1.089732,-4.03592 -0.0636,-7.97424 0.658591,-11.97813 1.87376,-6.15674 -2.67113,-0.35203 -5.15624,-1.39651 3.054879,0.19997 7.33479,-7.14454 2.18281,-4.36112 -5.52641,2.81008 -12.441172,1.91004 -18.254189,0.56407 -3.814432,-0.63383 -9.578721,-3.96047 -11.979902,-3.58982 -1.7029397,4.95736 5.300609,3.32641 7.33497,6.22754 4.495601,2.30275 10.016931,2.54203 15.027772,2.70969 4.868479,-1.4586 -3.226321,2.57054 -5.264872,0.6958 -4.23073,-0.60725 -9.106109,-3.43302 -10.166279,2.63611 -1.691309,0.91867 -9.2964607,3.65794 -7.26608,1.37063 1.91979,-0.13226 1.464911,-9.31482 2.979939,-5.89054 -3.504118,4.89519 3.841019,6.79731 4.80519,1.72072 1.700551,-3.84021 -4.773649,-4.60462 -7.485949,-5.09319 -4.1669197,9.40147 -2.4110497,20.0794 -3.3604087,30.06385 1.717119,3.36896 6.7890487,3.19772 10.1175977,3.85029 2.16246,0.0192 4.31402,0.0918 6.45737,-0.26678 z m -14.5737207,-5.4374 c 0.8136307,-5.36185 -1.942229,-11.456 0.9161307,-16.56401 0.2516,3.57938 -0.55698,8.12652 0.12451,12.16441 -0.218271,1.05347 1.00852,5.05007 -1.0406407,4.3996 z m 16.1417927,-7.35438 c -2.295652,-1.63265 -9.710841,-2.78366 -3.09989,-2.52653 2.338869,-0.86632 9.519438,6.18717 3.09989,2.52653 z m 0.652118,-8.28893 c 2.986972,-2.43116 8.0048,-1.46166 11.72613,-2.81568 -4.1113,-1.08511 -9.0116,-0.31581 -12.75551,-1.40076 1.79586,-0.52646 7.377682,0.007 10.588332,0.17689 7.5419,0.74208 -0.253162,3.55637 -3.64748,2.93673 -1.846,-0.83747 -5.147702,2.5915 -5.911472,1.10282 z m 6.49128,-13.80192 c -1.013198,-2.25596 2.331802,-5.72657 1.928572,-8.52107 2.432179,2.89868 -3.28608,7.45391 -0.546582,9.05676 4.323242,1.03774 7.588192,-2.32613 6.140072,-6.64367 1.449509,2.43746 -0.530572,8.54703 3.65837,2.70118 0.0773,-4.0921 2.72039,-7.62631 2.164098,-11.8293 -3.474378,4.80452 1.236131,-3.50626 2.175862,-5.51918 1.4585,-4.04159 -3.296092,-5.37239 0.293328,-7.30445 0.694251,-2.61049 -6.45717,2.30276 -9.0815,0.0252 -4.439399,-4.26867 -0.236818,-0.60057 2.766351,-0.56303 4.388339,-0.32269 4.86904,-4.52772 4.764209,-0.87223 4.25614,-1.71815 5.663872,-6.41783 4.879732,-10.63714 0.59563,-1.61374 2.780929,-0.76885 4.433678,-4.56578 0.808892,-5.51368 3.636891,-4.91466 0.74735,0.0582 -2.91623,3.8624 -4.50627,7.41254 -5.243428,12.09198 -1.275892,1.75224 -4.42124,7.94614 -1.526291,7.09995 -2.397429,2.72492 -0.440881,6.8314 1.042609,9.44483 -3.471968,-2.78704 -0.8812,3.80286 2.18894,1.66762 -0.805889,-2.74183 1.71423,-8.53023 5.780752,-5.05823 2.426488,-1.34261 -4.05802,-9.35849 -3.47177,-5.55666 -2.248572,-1.54609 0.669999,-7.05484 1.62946,-9.77346 3.13149,-5.03056 6.340959,-10.32145 5.468128,-16.52135 0.679162,-4.003 -0.294478,-1.29049 -3.573298,-3.93903 -5.389092,-3.08074 -0.0511,5.7171 -3.587941,0.61231 -3.338629,-2.30845 -3.3841,5.23582 -6.000541,6.50172 -1.589108,4.21142 -4.906428,5.33036 -9.017018,5.19403 -1.20967,2.54352 0.729908,-2.96367 -2.50861,-4.94692 -3.29152,-1.46758 -2.117302,-10.92872 -1.675871,-5.51915 1.17066,2.84923 3.141189,7.04043 6.14585,8.46459 4.917279,2.0375 6.464549,-4.74085 8.7346,-7.78092 2.613109,-5.55125 6.25942,-14.51096 -0.92973,-18.209101 -5.54912,-3.0207 -13.956739,-0.536101 -14.33626,6.557301 3.52702,2.67452 -4.464439,-0.22597 -1.824652,5.39877 3.747892,2.35286 -1.474067,5.69706 -4.586589,3.31139 -5.107321,0.21979 -3.927509,3.58463 -8.24203,-1.16312 -4.297939,-1.9558 -8.3015,0.67183 -12.1658397,1.94532 0.3451107,-1.26804 -4.019759,-2.41272 -7.66602,-2.41232 -4.43364,2.32176 -9.52281,1.82324 -14.2382493,2.65734 -4.912561,0.39497 -4.320441,5.53931 -4.121881,7.42796 -0.22027,9.35395 6.00704,17.40463 9.8984303,25.04934 3.73408,4.14797 -6.2952993,6.66278 -4.1070903,11.40013 2.5210103,6.37429 0.5937503,0.0731 2.6559203,-0.71181 -2.05337,2.30013 5.05754,8.84936 1.45916,3.27449 0.25785,-4.30423 2.47942,3.14986 3.34213,4.67899 5.92235,2.19966 4.3055,-1.51435 2.40516003,-4.8493 -0.77604003,-3.33596 5.44328997,-6.19571 5.88392097,-2.59391 2.954229,-3.76783 -2.707241,-7.25073 -3.821541,-11.0186 -3.80952,-5.4844 -3.614039,-12.37395 -3.41657,-18.58722 -0.469739,-1.85879 -8.7757003,-5.76131 -4.22233,-5.12589 4.14848,4.40776 10.180601,5.14444 15.78655,3.63982 3.6508397,0.0528 -0.910759,-5.48587 3.3412697,0.003 3.11935,2.14005 4.36645,7.32651 0.597979,1.97589 -3.509229,-2.07211 -3.7447977,5.59589 -3.52806,8.01446 -0.0683,6.36553 2.528861,12.43587 4.682041,18.17207 -1.249958,-0.0166 -1.945429,0.29389 -1.37114,5.10519 -1.92256,4.40596 1.412319,6.09643 5.540772,6.8646 5.01691,3.11459 6.217309,-0.34681 4.470619,-4.8464 -4.516792,-5.07699 2.426219,-1.17021 1.456921,2.76405 -1.056561,5.5751 4.811069,4.65977 8.347998,3.91068 z m 7.367111,-8.10076 c -4.667059,-1.35933 -3.864459,-3.54582 0.513599,-0.85088 1.281012,0.59463 0.63986,2.03086 -0.513599,0.85088 z m -8.224821,-0.66464 c 0.837771,-0.89148 6.231331,-5.32625 3.598611,-0.84693 -1.296861,-0.11199 -2.932711,1.3543 -3.598611,0.84693 z m -5.853049,-1.04759 c -3.05748,-1.91503 -2.48498,-4.86889 -6.97537,-3.05234 -3.439429,-2.48728 -3.40202,-5.43208 -0.0453,-1.37861 2.074673,0.91607 6.12022,-1.66971 7.193172,-3.75828 4.545989,-3.1309 0.911619,-0.78767 0.13145,2.48382 -4.19454,0.14299 -1.079021,5.95889 1.685139,5.26755 0.998461,1.18416 -1.6218,0.43762 -1.98914,0.43786 z m 15.52576,0.0864 c 2.303029,-1.99625 -0.14433,-9.21691 2.15347,-3.1652 -0.6698,0.82595 -0.78618,4.13198 -2.15347,3.1652 z m -6.01296,-3.16727 c 0.597709,-5.70294 2.699411,-4.6455 0.748699,0.43589 -0.30171,-0.0694 -0.861579,0.2367 -0.748699,-0.43589 z m 6.00471,-4.16601 c -3.91266,-1.28852 -4.963091,-3.10354 0.410279,-1.05905 1.65191,0.40909 0.0538,2.48675 -0.410279,1.05905 z m -6.927119,-1.21392 c -5.28034,-1.24528 -2.895942,-2.51685 0.79747,-0.7987 2.1908,-3.44789 2.713069,-5.26749 1.40262,0.55364 -0.45973,0.88373 -1.526181,0.41374 -2.20009,0.24506 z m 10.006729,0.076 c -0.430151,-3.08919 -3.517849,-4.99845 -6.189821,-5.90203 -1.340138,-4.01826 2.55157,-0.9413 3.63937,0.81639 -0.497588,1.79185 5.593551,2.54666 2.550451,5.08564 z m -25.485931,-0.73284 c -0.66049,-1.97802 -7.66503,-3.13437 -5.28088,-3.88398 3.964861,2.82856 2.5864,-3.55728 5.341491,3.08017 2.234768,0.0816 2.47414,2.01994 -0.0606,0.80381 z m 5.349912,-1.44991 c 0.990039,-3.52213 5.876589,-1.85154 7.918368,-4.39092 3.229422,-0.0768 6.154912,-5.19066 4.633621,0.19398 -4.373779,-1.60084 -5.13107,4.10617 -9.62837,1.93299 -0.46088,1.34455 -1.337971,3.36806 -2.923619,2.26395 z m -2.91964,-2.27208 c -1.880211,-1.74809 -7.9605,-3.04967 -6.615351,-5.94428 0.695518,4.99385 5.443559,-1.0161 4.76341,4.07551 1.291781,0.16874 4.792718,3.58308 1.851941,1.86877 z m 1.463259,-4.11155 c -1.787691,-2.802 -6.76938,-5.54844 -5.49815,-8.97612 1.767639,3.7356 5.319689,7.5749 10.12031,7.37665 7.272499,2.01634 -4.42613,-3.02328 0.126119,-2.15414 3.03702,3.38316 8.52456,2.02226 9.239591,-2.57795 1.722671,2.8296 -4.02215,6.80276 -7.495391,6.04023 -4.97535,-0.62668 -6.186311,-1.86258 -5.309899,1.87607 -0.39414,-0.52809 -0.788631,-1.05722 -1.18258,-1.58474 z m -29.7514207,-4.7192 c -1.86428,-2.86046 -3.48241,-8.31707 -1.41063,-10.87258 -0.49067,4.03375 0.41929,8.00234 2.38796,11.21542 -0.20582,0.39236 -1.00099,0.0843 -0.97733,-0.34284 z M 38.743077,134.9104 c 6.101009,-2.70905 2.777779,0.87309 0,0 z m -2.375961,-1.0031 c -4.800089,-1.82308 -5.5211,-2.76386 -0.14742,-0.86921 2.59203,1.13118 2.41074,-6.36953 1.98859,0.77691 -0.156499,1.69493 -1.041969,0.50591 -1.84117,0.0923 z m -18.148379,-3.2832 c 2.479969,-2.83797 8.47308,0.313 1.364639,-0.47767 -0.29164,-0.13357 -1.65345,1.68066 -1.364639,0.47767 z m 19.9961,-4.11554 c -0.58343,-4.11981 -6.75807,-4.48149 -9.09247,-7.91808 1.23644,-1.74012 5.86821,4.60932 9.073179,5.02008 0.905491,0.42677 1.061352,3.90852 0.01929,2.898 z m -18.408121,-0.44112 c 3.0827,-1.71107 5.27,-4.6981 5.688121,-8.35728 2.160929,1.78321 -1.65236,7.21697 -4.549831,8.43634 -0.116689,0.13425 -1.34149,0.34056 -1.13829,-0.0791 z m -32.11904,-2.86591 c -1.64209,-3.11272 3.1732003,-7.64662 5.3949503,-5.42272 -5.1764803,-0.74961 -4.3540203,5.55492 -5.3949503,5.42272 z m 19.9477303,-2.24855 c -2.82821,-2.50815 -7.81316997,-1.65848 -10.58333,-1.28433 3.07168103,-2.41729 9.43303,-1.06409 11.90625,1.58367 0.26267,1.28105 -1.01554,-0.0418 -1.32292,-0.29934 z m 53.8796207,-2.01444 c -1.87991,-4.16979 0.0816,-5.35204 0.684421,-0.14923 -0.223401,0.009 -0.514562,0.59999 -0.684421,0.14923 z m -38.139251,-2.9952 c -3.348279,-2.23329 -9.310601,-1.00306 -1.849739,-1.70379 0.659079,-0.22977 3.595909,2.54548 1.849739,1.70379 z m -28.4403697,-1.46436 c 1.44959,-3.66082 11.78555,0.68681 9.304081,-1.47829 -5.905391,-2.8786 6.0536297,-0.0698 1.226428,1.63017 -3.478649,0.18447 -7.447819,-1.50698 -10.530509,0.25757 z m 10.99039,49.23823 c 4.6005607,-2.05891 -2.738459,-9.10095 -4.80322,-5.73368 -2.50012,2.67219 2.05341,7.32658 4.80322,5.73368 z m 57.0982017,-6.52426 c 4.106918,-3.61498 -3.14267,-6.22139 -5.25005,-8.7139 -5.797262,0.788 -1.175041,7.18875 2.085578,8.51758 0.68939,0.72609 2.30628,0.63941 3.164472,0.19632 z m -8.68113,-1.67712 c 3.699158,-1.45783 -7.20703,-0.81967 -2.254001,0.38338 0.80835,0.0341 1.545659,0.0901 2.254001,-0.38338 z m -5.038341,-3.06232 c 1.499391,-6.84583 -3.34758,-0.87237 0.11231,1.99027 0.554149,0.39559 0.25572,-1.78843 -0.11231,-1.99027 z m 54.778993,48.95145 c -4.896599,-0.32566 -6.905719,-5.22151 -10.921629,-7.2064 -1.71811,-3.55941 -5.13632,-3.68421 -8.1213,-2.84592 -3.84984,-0.0839 -6.08795,-4.44672 -8.135054,-7.39436 -0.40504,-4.51038 0.886021,-9.37787 -1.94043,-13.4987 -1.738619,-3.23028 -0.28049,-7.98932 3.68172,-8.6578 -5.6875,-0.40112 -1.782408,-7.86236 -4.839809,-9.69967 -2.322941,-2.76759 -8.22556,-4.81368 -8.270002,-8.10998 3.616291,2.73071 7.014541,6.09931 10.757771,8.45866 6.530714,-3.08365 0.278071,-6.23938 -3.066921,-8.92661 -6.384369,-4.30738 -3.109328,-5.13193 1.333032,-0.36375 2.83691,2.87215 6.684083,6.14582 5.477323,-0.33132 -1.465224,-8.70826 -5.731294,-17.84471 -1.673454,-26.47894 0.092,-4.15441 1.046244,-8.08033 0.17861,-12.27446 0.003,-4.967223 2.139374,-9.619722 5.308074,-13.382682 -1.43765,-6.141339 1.44739,-14.55991 8.75862,-14.689212 3.64195,-5.266539 12.374349,-3.175468 15.035489,-9.125829 1.96635,-3.99978 -2.27889,-6.526079 -1.42911,-10.34214 1.39375,-3.70775 -0.10019,-9.57627 4.79134,-11.58654 5.7739,-3.74208 16.25377,-1.83042 16.39821,6.34346 1.35442,6.97931 -0.70812,13.87564 -3.11097,20.376629 4.14987,1.639091 7.06331,5.322562 11.6958,5.530882 5.89624,2.640589 5.48384,10.516161 3.36162,15.60327 2.66097,4.23612 2.42134,8.691642 1.4794,13.192762 -0.6622,7.33738 5.21745,13.92707 2.40494,21.35333 -1.38766,6.24722 -1.0411,13.71729 4.37263,18.00968 0.77306,3.44634 0.006,5.90202 4.1333,7.98231 1.71426,5.23048 -5.51617,7.25253 -8.05252,2.90122 -2.91372,-0.0785 -7.76616,1.78694 -9.64506,-2.76109 -4.3974,-4.09917 -0.54041,3.23799 -1.63134,5.76425 0.33955,4.50253 -0.26532,7.95122 -0.48913,12.37744 0.0226,7.7042 -1.47231,15.25491 -5.83106,21.72712 -1.67992,3.5627 -3.11909,8.08622 -7.98352,7.50399 -4.73224,1.1887 -6.42662,-4.85912 -8.98968,0.12879 -1.4861,0.81456 -3.41834,0.70834 -5.03689,0.42161 z m 3.26228,-1.30157 c 4.3254,-0.73909 2.70092,-6.72281 5.0189,-9.6286 2.73213,-6.88767 1.72175,-14.32342 1.8978,-21.54025 -6.05092,2.47929 -13.0646,1.03898 -18.860339,-0.34855 0.55547,7.03249 1.71394,14.13993 3.71411,20.76379 -1.1264,6.57746 -0.84292,-4.02574 -2.85616,-5.76808 -1.01655,-6.2026 -1.90534,-12.97271 -2.66283,-18.73851 -4.81549,-0.58426 -5.90547,1.18183 -3.07573,5.70625 2.20577,7.13091 -2.89701,15.84265 3.11085,21.92393 2.27365,2.73652 5.69359,4.14583 7.677859,7.08878 1.83312,0.79812 4.07571,0.97438 6.03554,0.54124 z m -3.61313,-3.87398 c -3.41843,-3.8954 -1.9057,-5.81045 0.87641,-0.90016 1.88389,1.10264 0.17447,1.87868 -0.87641,0.90016 z m 17.23141,2.70056 c 3.52113,-1.97164 2.79155,-7.16355 5.84699,-9.92848 4.8771,-6.00058 3.33499,-14.09956 3.591,-21.25265 -4.67143,1.96359 -9.85521,1.06168 -14.68438,0.45351 -0.15522,8.33635 0.44281,16.79161 -3.01751,24.60625 -2.82621,3.88237 1.36875,7.65244 5.45823,6.4674 0.96125,-0.0723 1.94985,0.2631 2.80567,-0.34603 z M 89.923341,189.8529 c 0.41799,-5.96028 -1.98526,-13.89103 -8.69626,-15.16247 -3.145113,-6.08486 0.45559,0.80542 3.66626,-0.41863 4.2927,0.0605 0.20308,1.97425 4.70679,5.48017 1.04962,-4.03508 0.70752,-8.77311 -1.38089,-12.47568 -4.56703,0.63689 -6.88715,-6.62648 -11.484984,-3.4844 -3.28739,4.54464 2.367054,8.30167 1.245319,13.06465 -0.334139,4.56251 0.134131,9.57589 4.628055,11.98327 1.66809,1.66725 4.84968,1.08414 7.31571,1.01309 z m -1.32543,-2.26102 c -1.32706,-4.61729 1.94437,1.87407 0,0 z m -3.175,-0.33955 c -2.50439,-4.03734 3.11612,2.07649 0,0 z M 111.05402,168.5934 c 6.09893,0.84726 3.0361,-6.18795 4.92827,-9.6308 2.61087,-0.1657 7.53237,-9.60832 5.87152,-3.97809 3.00394,0.88054 1.40506,2.2595 -2.96171,3.40705 -3.21353,0.97694 -3.50189,8.17798 -0.52282,8.9256 4.30056,-0.19283 10.15406,1.45865 13.04231,-2.56182 -0.74388,-4.48213 0.69942,-9.06553 -1.01012,-13.43855 1.08974,-4.03592 -0.0636,-7.97426 0.6586,-11.97814 1.87375,-6.15673 -2.67113,-0.35201 -5.15624,-1.3965 3.0423,0.19577 7.34034,-7.11877 2.18281,-4.36454 -5.53522,2.80038 -12.43853,1.92252 -18.25418,0.56748 -3.81619,-0.64696 -9.67633,-3.96607 -12.005859,-3.62439 -1.42697,5.29293 5.943329,3.44559 8.101079,6.82088 5.0995,1.14641 10.97584,3.33182 16.0073,1.36043 -1.58585,3.39531 -7.63038,0.97191 -10.9292,0.84658 -4.73502,-3.33621 -4.76217,3.12747 -8.33282,4.34456 -3.130949,0.39958 -8.104869,2.81629 -4.018539,-0.94974 -0.67116,-3.74822 3.339389,-8.60824 1.05547,-2.04063 0.310789,5.09537 6.779819,0.72847 6.115589,-2.85904 -2.32787,-1.80535 -9.064919,-5.59973 -9.020079,-0.40166 -2.7372,4.31366 -1.36626,9.83386 -2.20709,14.66485 1.17306,4.64285 -0.66204,9.79012 0.5752,14.07433 4.837809,2.40669 10.519029,2.97207 15.880509,2.21214 z M 96.458071,163.142 c 0.81361,-5.36184 -1.94224,-11.456 0.91613,-16.56401 0.25159,3.5794 -0.55699,8.12652 0.12451,12.16441 -0.21827,1.05345 1.0085,5.05006 -1.04064,4.3996 z m 16.141779,-7.35438 c -2.29565,-1.63266 -9.71085,-2.78366 -3.09989,-2.52654 2.33885,-0.86633 9.51946,6.18716 3.09989,2.52654 z m 0.65213,-8.28893 c 2.98697,-2.43116 8.0048,-1.46167 11.72613,-2.81568 -4.1113,-1.08511 -9.01158,-0.31581 -12.75551,-1.40076 1.79587,-0.52647 7.37769,0.007 10.58834,0.17689 7.54189,0.74209 -0.25317,3.55637 -3.64748,2.93673 -1.84601,-0.83747 -5.1477,2.5915 -5.91148,1.10282 z m -25.829559,17.10036 c 2.28104,-0.78477 -5.02669,-5.9515 0.34063,-8.187 3.22764,-3.042 5.20337,3.87307 4.93958,-2.61276 -2.40159,-3.09065 -4.70007,-6.20599 -4.4131,-10.50667 -1.37392,-6.27091 1.73234,-11.87771 3.36387,-17.68558 0.43218,-4.04055 1.23298,-9.59476 -0.7457,-12.0986 -1.62629,-6.92096 -0.65884,-4.64801 1.17769,-1.4561 5.26387,-4.69365 6.41867,-12.203572 5.42575,-18.899293 -6.64978,2.96662 4.294619,-5.44984 2.747129,-2.704528 -2.395509,3.612668 0.54982,6.437238 -1.590929,8.140599 -0.9031,3.346202 0.21836,10.876932 3.557189,6.216852 -0.37925,2.02515 6.99147,4.86565 2.94156,3.46907 -2.87515,0.52023 -7.236089,-4.37772 -8.585849,-0.0721 -4.03562,3.75055 4.008279,7.1304 2.43819,10.57926 -2.31344,-3.73227 0.69193,5.20688 -0.0616,7.27413 -1.50644,5.17123 6.253219,5.21068 9.464789,6.67015 3.66849,0.87519 1.41924,-6.30763 0.76159,-8.4254 -4.68062,-3.98035 0.56142,-3.02053 1.32749,1.1628 2.22298,3.30192 -1.65092,9.43012 4.62185,8.66971 2.71372,-0.53451 8.90306,1.49594 9.6654,-1.23047 2.55733,-6.52305 -0.27195,4.22924 4.28493,-1.26055 2.53207,-4.29908 0.41512,-9.93379 2.11256,-14.65395 0.35649,-6.49142 -1.18933,0.29158 -1.62401,-3.72591 2.95212,-2.734 3.49436,-8.74083 0.91493,-10.9052 1.26143,-2.626692 1.07205,-3.977123 -4.07195,-1.22621 -3.4429,1.88901 -9.41996,-4.450144 -3.57113,-0.84936 4.49092,1.4794 5.83212,-3.081692 7.92321,-5.861355 -1.63913,2.922622 -2.31111,7.209945 0.76449,2.093032 3.04061,-1.678329 2.07403,-5.2988 2.08897,-7.684619 -0.90347,4.761669 4.96561,1.87012 2.44097,4.127778 -3.28789,2.44222 -3.85739,6.798302 -3.74169,10.495664 1.46865,4.10922 -1.06578,8.28393 3.81948,10.59073 3.5461,-1.09178 4.69064,-6.38853 3.22301,-10.00021 -0.67182,-6.001993 2.11541,1.6047 1.34457,-5.244703 -3.16486,-4.287991 -1.20351,-8.225031 -1.0301,-12.89649 7.9e-4,-4.430149 -2.6155,-8.615709 -7.42877,-8.43797 -3.02134,-0.177321 -7.88128,-7.445902 -9.37895,-3.121189 3.24374,3.069119 -1.59651,0.774668 -1.99223,5.092779 0.35743,-4.216781 3.59388,-8.074131 -2.87239,-7.21296 -2.67682,-2.505061 -7.46538,-4.23874 -7.1446,-8.558671 0.79746,0.12036 2.60205,5.360711 5.78724,5.88225 2.15311,3.735411 8.78291,2.02666 8.2786,-2.61411 1.86201,-6.19901 2.85153,-13.60129 0.006,-19.53415 -4.84638,-6.58504 -18.6094,-2.39139 -16.8074,6.51348 4.05844,3.53705 -2.67069,0.60312 -0.65466,5.46973 3.73524,3.06723 1.37886,3.16985 1.27189,7.57728 -1.54545,6.12555 -10.642619,4.744341 -13.555369,8.45545 -0.23343,2.55859 -7.48063,1.125979 -8.53048,4.882261 -3.61613,3.34191 -0.29638,9.09996 -1.88061,12.368649 -1.83944,-1.05033 -4.21846,5.907201 -4.87808,8.740614 -0.90096,4.53767 1.41875,8.88899 -0.2867,13.35815 1.43168,3.30387 -2.975159,6.03947 -1.586649,10.67831 -0.33827,7.31508 3.955509,14.02506 2.941559,21.40176 3.07907,1.23874 -4.205328,5.58524 -4.943918,8.0624 -1.100381,4.02458 3.700958,8.33457 1.542209,2.44931 2.093219,-2.08251 0.328832,5.25592 4.366359,5.72293 -0.79113,0.20194 -2.52622,-8.03096 -0.58217,-2.81252 1.91277,2.28744 2.14226,6.13708 6.07578,4.33353 z m -5.4074,-27.16146 c -1.86756,-4.78323 -0.56206,-9.8822 1.82621,-14.122 -1.82463,-2.88847 -1.40699,-8.16276 0.26599,-2.20909 2.66814,3.82507 2.98049,9.21604 1.62713,13.30175 -2.19094,-1.60861 1.91989,-7.49561 -1.50203,-8.50678 -3.2046,3.18926 -2.05288,8.12134 -1.6682,11.79574 l -0.26715,0.26715 -0.28192,-0.52676 z m 37.928369,-6.05779 c -1.68819,-2.9464 0.58605,-5.21949 0.43841,-8.80934 0.32413,-3.99989 1.48331,4.32167 -0.14024,5.92682 -0.90889,1.55472 3.37872,4.41206 -0.29817,2.88252 z m 6.48994,-2.64486 c 0.57992,-2.73652 -0.0417,-9.2483 1.15361,-3.26282 -0.58478,0.8144 0.5711,5.43141 -1.15361,3.26282 z m -8.73125,-8.03998 c 2.21365,-3.9289 6.47446,-2.45972 1.40493,-0.5145 -0.24862,0.32607 -1.60304,1.98095 -1.40493,0.5145 z m 8.59896,0.27925 c -5.38303,-1.03542 -4.86049,-3.05591 0.33156,-1.05834 1.025,0.40333 0.41306,1.99367 -0.33156,1.05834 z m -15.08125,-0.43787 c -2.66842,-3.11783 -3.4645,-3.15167 -7.80885,-2.51479 -4.674419,-5.45924 -0.64118,-0.76261 2.81871,-0.87322 2.60385,-2.17208 4.54027,-4.93541 7.1068,-6.58103 -1.34032,1.8133 -4.1492,5.06884 -3.44158,7.19203 -0.0577,2.54375 7.89359,2.60653 1.32492,2.77701 z m 16.13823,-1.45648 c 1.61888,-2.29514 -1.87723,-9.23446 1.48696,-3.45066 -0.23675,0.52132 -0.91121,4.69864 -1.48696,3.45066 z m -44.963059,-2.31511 c 0.31741,-4.28599 6.37564,-7.18023 4.27107,-12.27079 -4.03908,-3.08655 4.21089,1.41317 1.02273,4.50611 -1.45797,2.60874 -4.26466,6.3089 -5.2938,7.76468 z m 38.339959,-1.28065 c -0.59367,-6.50268 2.74324,-1.98146 0.17425,1.25677 -0.88605,0.29259 -0.0454,-0.89868 -0.17425,-1.25677 z m -17.32034,-2.89824 c -0.84664,-1.71089 -8.652019,-1.58204 -5.203259,-2.33241 4.226859,1.27801 1.58354,-4.15787 5.318089,1.52602 2.86834,-0.43849 1.97778,1.19936 -0.11483,0.80639 z m 22.65644,-0.9034 c -4.14141,-0.65593 -5.68041,-2.59902 -0.28261,-1.027 1.67821,-0.86779 1.7835,3.07639 0.28261,1.027 z m -8.20321,-0.74922 c -6.17331,-1.265 0.84477,-0.32229 2.76754,-1.11423 -0.99188,-7.47449 3.15084,-0.0958 -0.57485,1.50756 -0.79931,0.39373 -1.47147,-0.15722 -2.19269,-0.39333 z m -8.98517,-0.45417 c -0.20855,-3.10484 4.81453,-3.16043 6.21372,-4.87641 3.46206,-0.11503 5.65217,-6.393972 5.51615,-1.71934 -3.02203,0.77978 -5.25164,4.65119 -9.46732,3.88239 -0.19675,1.146 -0.62904,3.53248 -2.26255,2.71336 z m 19.84375,-0.26459 c -0.50495,-3.06735 -4.30175,-4.58626 -7.18785,-5.24756 -1.32404,-4.07953 4.2265,-0.62093 4.49355,1.71701 1.56538,-1.21904 5.24626,3.95993 2.6943,3.53055 z M 104.56933,102.506 c -4.09463,-3.121492 -4.780379,-7.064323 -0.39301,-1.79096 1.65264,1.45278 11.6721,2.17443 7.90448,-0.0183 -4.99195,-1.639245 -5.60787,-2.375795 -0.16134,-0.770274 3.7871,3.600354 6.64928,-0.62928 7.89929,-3.60263 0.3186,7.024504 -8.26475,7.755264 -13.36146,6.304264 3.90528,4.41827 0.39666,2.84569 -1.88796,-0.12206 z m -20.900199,-1.0199 c -1.50241,-3.128402 5.12228,-11.068281 1.423,-4.597443 -1.77859,0.490281 0.57856,7.428033 -1.423,4.597443 z m 7.8392,-3.402093 c -1.73174,-1.176718 -5.80263,-10.40212 -2.68882,-5.156689 2.68804,6.49659 3.69308,0.0263 6.43552,-2.3802 -0.63465,2.09812 -3.32976,4.871239 -3.23793,7.9375 -0.23726,-0.0659 -0.8277,0.221449 -0.50877,-0.400611 z m 25.827129,-2.677718 c -7.17011,-2.060432 -2.28752,-1.362501 1.41896,-0.442272 -3.07349,-5.701739 2.49185,-0.22837 -0.12667,1.11475 l -0.69072,-0.35932 -0.60194,-0.313139 z m -14.5861,-2.04924 c -2.938609,-7.002841 3.36571,4.109249 0,0 z m 8.60272,-0.965923 c 0.89236,-2.32224 9.71557,-1.426588 5.68978,-0.819189 -1.85454,-0.894689 -4.43493,0.72382 -5.68978,0.819189 z m 8.76665,-0.124208 c 2.85011,-3.353689 10.58583,-0.69451 2.2547,-0.825101 -0.68089,-0.589719 -2.88754,2.360671 -2.2547,0.825101 z M 89.798251,90.028699 c -1.70106,-5.921452 0.70291,-3.205102 1.14969,0.518419 -0.43548,-0.055 -1.01954,0.224751 -1.14969,-0.518419 z m 46.956699,0.244388 c 2.38487,-2.76691 -0.93479,-6.96037 -0.31047,-8.721789 1.86035,2.21973 2.28552,7.025331 0.31047,8.721789 z m -42.696169,-0.7033 c -0.7233,-1.941298 0.34233,-8.326429 2.21205,-7.290588 -1.88758,1.96165 -0.92062,6.114647 -2.21205,7.290588 z m 7.768299,-0.322059 c 2.81749,-3.953121 7.5591,-3.484829 1.20727,-0.313179 -0.0741,0.298498 -1.51302,1.577599 -1.20727,0.313179 z m -1.5875,-1.35958 c 0.2339,-2.772971 6.00129,-5.335571 2.13832,-7.851179 -4.368819,-2.492172 4.07495,0.997328 5.77887,0.840308 -1.01336,0.718511 -4.99068,1.33744 -6.02497,5.295961 -0.80942,0.056 -1.42396,3.820718 -1.89222,1.71491 z m 32.27262,-1.459291 c -3.05458,-4.2747 -2.05428,-4.677219 0.8003,-0.16738 0.37518,0.93527 -0.73691,1.355172 -0.8003,0.16738 z m -15.67187,-1.19563 c 0.1891,-3.663228 -10.68687,-4.238379 -4.4975,-4.255479 2.10917,-1.56636 8.10676,6.05201 4.4975,4.255479 z m 2.97842,-1.382398 c 0.54362,-5.872771 6.80766,-2.542471 9.29515,-6.056082 5.64088,0.430911 -2.05204,2.780252 -4.59039,2.69821 -2.54011,-0.817229 -3.52614,4.3342 -4.70476,3.357872 z m -6.08689,-3.42401 c 0.40209,-2.879191 -5.21708,-5.65191 -2.97367,-7.871362 0.66531,2.30855 4.97119,7.237449 2.9734,7.871362 z M 95.477081,78.266618 c 1.97303,-4.075491 9.040869,1.405321 2.23951,-0.947449 -0.44698,0.01781 -2.34671,2.197938 -2.23951,0.947449 z m 9.260419,0.159178 c 1.68039,-3.38972 3.25014,-5.163759 1.30633,-0.357229 0.19517,0.566869 -1.47852,0.884142 -1.30633,0.357229 z m 13.79695,-2.298459 c 4.23699,-3.855569 2.67646,0.0011 0,0 z M 92.421571,163.72682 c 4.64976,-1.96355 -2.70765,-9.14654 -4.78024,-5.74329 -2.49552,2.66532 2.03468,7.30537 4.78024,5.74329 z m 1.62861,-5.33571 c 0.21051,-5.84973 -1.76837,2.0354 0,0 z m 55.492569,-1.19816 c 4.10494,-3.58496 -3.06794,-6.14134 -5.193,-8.56978 -6.55354,0.78334 -0.19063,8.32124 3.36736,8.85657 0.61922,-0.0368 1.29898,0.17848 1.82564,-0.28679 z m -8.68113,-1.67712 c 3.57979,-1.23382 -7.19687,-0.92155 -2.254,0.38338 0.80835,0.0341 1.54566,0.0901 2.254,-0.38338 z m -5.04223,-2.97529 c 1.47369,-7.09286 -3.40026,-1.37166 0.11631,1.90324 0.53594,0.28061 0.28405,-1.64984 -0.11631,-1.90324 z m 4.70913,1.24195 c -0.56964,-2.38407 1.095,-7.93157 5.0871,-5.5562 3.6441,0.16739 -2.14876,-5.83864 -3.23598,-7.80521 -1.88336,-6.83496 0.44977,-13.76863 0.19974,-20.54652 -0.88144,-2.93095 -1.90732,-11.09268 -5.29441,-5.13272 0.0749,5.58846 -2.56063,-2.05516 -5.63133,-2.89576 2.17505,5.74764 -2.87561,12.30608 2.19009,17.12484 1.82065,3.54567 1.95734,8.67751 1.08109,12.24863 -2.32468,3.38459 0.30258,4.58967 1.56313,2.16286 -1.84517,2.87229 1.53893,6.68847 1.63366,9.07713 -4.37576,-4.35184 0.37651,4.5078 2.40691,1.32295 z M 134.9,128.86881 c 0.83177,-2.31391 2.62895,-11.02704 2.18552,-3.92851 -0.35638,0.56003 -1.998,7.66629 -2.18552,3.92851 z m -1.01334,21.40882 c 4.31327,-5.99544 -4.09253,-0.7687 -0.6207,1.52298 0.45568,-0.3512 0.30479,-1.08387 0.6207,-1.52298 z m -40.132849,-4.89438 c 0.36138,-6.14883 3.31835,-11.70499 3.37266,-17.92675 2.30958,-5.04278 -0.39685,-11.34186 -2.86999,-16.01065 -3.25438,3.01094 0.36841,8.20616 -1.15094,12.1411 -0.62398,6.98599 -5.74586,13.16821 -3.67958,20.47906 -0.23349,2.16344 3.22713,10.06746 3.84327,5.75097 0.20518,-1.47155 0.31486,-2.95757 0.48458,-4.43373 z m 40.017759,1.17313 c -0.32418,-2.49681 -3.08001,4.0395 -0.34582,0.2147 z m -0.62394,-2.68263 c 1.78423,-4.75443 -3.2052,-4.72465 -1.23851,0.35376 -0.2224,2.00669 2.12343,1.4487 1.23851,-0.35376 z m 1.37532,-6.69381 c 0.54493,-2.62922 -2.03403,-12.83318 -3.46518,-8.01869 0.26398,3.31269 0.20058,7.34906 2.18857,9.99313 2.21895,2.50934 1.17858,-0.72763 1.27661,-1.97444 z"
       id="path3916"
       inkscape:connector-curvature="0" />
  </g>
</svg>
